<svg width="92" height="30" viewBox="0 0 92 30" fill="none" xmlns="http://www.w3.org/2000/svg">
    <path d="M90.68 30C87.85 30 86.39 28.36 85.22 27.05C84.05 25.74 83.3 25 81.75 25C80.2 25 79.45 25.74 78.28 27.06C77.11 28.38 75.65 30 72.81 30C69.97 30 68.52 28.36 67.35 27.05C66.18 25.74 65.43 25 63.88 25C62.33 25 61.58 25.74 60.41 27.06C59.24 28.38 57.78 30 54.94 30C52.1 30 50.65 28.36 49.48 27.05C48.31 25.74 47.56 25 46 25C44.44 25 43.71 25.74 42.53 27.06C41.35 28.38 39.91 30 37.07 30C34.23 30 32.77 28.36 31.6 27.05C30.43 25.74 29.69 25 28.13 25C26.57 25 25.83 25.74 24.66 27.06C23.49 28.38 22 30 19.19 30C16.38 30 14.9 28.36 13.73 27.05C12.56 25.74 11.81 25 10.26 25C8.71003 25 7.96003 25.74 6.78003 27.06C5.60003 28.38 4.15003 30 1.32003 30C1.1431 30.0157 0.964848 29.9944 0.796606 29.9374C0.628363 29.8805 0.473814 29.7891 0.34279 29.6692C0.211765 29.5493 0.107134 29.4034 0.0355516 29.2409C-0.036031 29.0783 -0.072998 28.9026 -0.072998 28.725C-0.072998 28.5474 -0.036031 28.3717 0.0355516 28.2091C0.107134 28.0466 0.211765 27.9007 0.34279 27.7808C0.473814 27.6609 0.628363 27.5695 0.796606 27.5126C0.964848 27.4556 1.1431 27.4343 1.32003 27.45C2.87003 27.45 3.61003 26.7 4.79003 25.39C5.97003 24.08 7.42003 22.44 10.26 22.44C13.1 22.44 14.55 24.07 15.72 25.39C16.89 26.71 17.64 27.45 19.19 27.45C20.74 27.45 21.49 26.7 22.67 25.39C23.85 24.08 25.29 22.44 28.13 22.44C30.97 22.44 32.43 24.07 33.6 25.39C34.77 26.71 35.51 27.45 37.07 27.45C38.63 27.45 39.36 26.7 40.54 25.39C41.72 24.08 43.17 22.44 46 22.44C48.83 22.44 50.3 24.07 51.47 25.39C52.64 26.71 53.39 27.45 54.94 27.45C56.49 27.45 57.24 26.7 58.41 25.39C59.58 24.08 61.04 22.44 63.88 22.44C66.72 22.44 68.17 24.07 69.34 25.39C70.51 26.71 71.26 27.45 72.81 27.45C74.36 27.45 75.11 26.7 76.28 25.39C77.45 24.08 78.91 22.44 81.75 22.44C84.59 22.44 86.04 24.07 87.21 25.39C88.38 26.71 89.13 27.45 90.68 27.45C90.857 27.4343 91.0352 27.4556 91.2035 27.5126C91.3717 27.5695 91.5262 27.6609 91.6573 27.7808C91.7883 27.9007 91.8929 28.0466 91.9645 28.2091C92.0361 28.3717 92.0731 28.5474 92.0731 28.725C92.0731 28.9026 92.0361 29.0783 91.9645 29.2409C91.8929 29.4034 91.7883 29.5493 91.6573 29.6692C91.5262 29.7891 91.3717 29.8805 91.2035 29.9374C91.0352 29.9944 90.857 30.0157 90.68 30V30Z" fill="white"/>
    <path d="M90.68 18.78C87.85 18.78 86.39 17.15 85.22 15.78C84.05 14.41 83.3 13.72 81.75 13.72C80.2 13.72 79.45 14.46 78.28 15.78C77.11 17.1 75.65 18.78 72.81 18.78C69.97 18.78 68.52 17.15 67.35 15.78C66.18 14.41 65.43 13.72 63.88 13.72C62.33 13.72 61.58 14.46 60.41 15.78C59.24 17.1 57.78 18.78 54.94 18.78C52.1 18.78 50.65 17.15 49.48 15.78C48.31 14.41 47.56 13.77 46 13.77C44.44 13.77 43.71 14.51 42.53 15.83C41.35 17.15 39.91 18.83 37.07 18.83C34.23 18.83 32.77 17.2 31.6 15.83C30.43 14.46 29.69 13.77 28.13 13.77C26.57 13.77 25.83 14.51 24.66 15.83C23.49 17.15 22.03 18.83 19.19 18.83C16.35 18.83 14.9 17.2 13.73 15.83C12.56 14.46 11.81 13.77 10.26 13.77C8.71003 13.77 7.96003 14.51 6.78003 15.83C5.60003 17.15 4.15003 18.83 1.32003 18.83C1.1431 18.8457 0.964848 18.8244 0.796606 18.7674C0.628363 18.7105 0.473814 18.6192 0.34279 18.4992C0.211765 18.3793 0.107134 18.2334 0.0355516 18.0709C-0.036031 17.9083 -0.072998 17.7326 -0.072998 17.555C-0.072998 17.3774 -0.036031 17.2017 0.0355516 17.0392C0.107134 16.8766 0.211765 16.7307 0.34279 16.6108C0.473814 16.4909 0.628363 16.3995 0.796606 16.3426C0.964848 16.2856 1.1431 16.2643 1.32003 16.28C2.87003 16.28 3.61003 15.54 4.79003 14.22C5.97003 12.9 7.42003 11.27 10.26 11.27C13.1 11.27 14.55 12.9 15.72 14.22C16.89 15.54 17.64 16.28 19.19 16.28C20.74 16.28 21.49 15.54 22.67 14.22C23.85 12.9 25.29 11.27 28.13 11.27C30.97 11.27 32.43 12.9 33.6 14.22C34.77 15.54 35.51 16.28 37.07 16.28C38.63 16.28 39.36 15.54 40.54 14.22C41.72 12.9 43.17 11.27 46 11.27C48.83 11.27 50.3 12.9 51.47 14.22C52.64 15.54 53.39 16.28 54.94 16.28C56.49 16.28 57.24 15.54 58.41 14.22C59.58 12.9 61.04 11.27 63.88 11.27C66.72 11.27 68.17 12.9 69.34 14.22C70.51 15.54 71.26 16.28 72.81 16.28C74.36 16.28 75.11 15.54 76.28 14.22C77.45 12.9 78.91 11.27 81.75 11.27C84.59 11.27 86.04 12.9 87.21 14.22C88.38 15.54 89.13 16.28 90.68 16.28C90.857 16.2643 91.0352 16.2856 91.2035 16.3426C91.3717 16.3995 91.5262 16.4909 91.6573 16.6108C91.7883 16.7307 91.8929 16.8766 91.9645 17.0392C92.0361 17.2017 92.0731 17.3774 92.0731 17.555C92.0731 17.7326 92.0361 17.9083 91.9645 18.0709C91.8929 18.2334 91.7883 18.3793 91.6573 18.4992C91.5262 18.6192 91.3717 18.7105 91.2035 18.7674C91.0352 18.8244 90.857 18.8457 90.68 18.83V18.78Z" fill="white"/>
    <path d="M90.68 7.56C87.85 7.56 86.39 5.93 85.22 4.61C84.05 3.29 83.3 2.55 81.75 2.55C80.2 2.55 79.45 3.3 78.28 4.61C77.11 5.92 75.65 7.56 72.81 7.56C69.97 7.56 68.52 5.93 67.35 4.61C66.18 3.29 65.43 2.55 63.88 2.55C62.33 2.55 61.58 3.3 60.41 4.61C59.24 5.92 57.78 7.56 54.94 7.56C52.1 7.56 50.65 5.93 49.48 4.61C48.31 3.29 47.56 2.55 46 2.55C44.44 2.55 43.71 3.3 42.53 4.61C41.35 5.92 39.91 7.56 37.07 7.56C34.23 7.56 32.77 5.93 31.6 4.61C30.43 3.29 29.69 2.55 28.13 2.55C26.57 2.55 25.83 3.3 24.66 4.61C23.49 5.92 22 7.56 19.19 7.56C16.38 7.56 14.9 5.93 13.73 4.61C12.56 3.29 11.81 2.55 10.26 2.55C8.71004 2.55 8.00004 3.3 6.78004 4.61C5.56004 5.92 4.15004 7.56 1.32004 7.56C0.980562 7.56 0.654989 7.42514 0.414942 7.1851C0.174896 6.94505 0.0400391 6.61948 0.0400391 6.28C0.0400391 5.94052 0.174896 5.61495 0.414942 5.3749C0.654989 5.13486 0.980562 5 1.32004 5C2.87004 5 3.61004 4.27 4.79004 3C5.97004 1.73 7.42004 0 10.26 0C13.1 0 14.55 1.64 15.72 3C16.89 4.36 17.64 5 19.19 5C20.74 5 21.49 4.26 22.67 2.94C23.85 1.62 25.29 0 28.13 0C30.97 0 32.43 1.64 33.6 3C34.77 4.36 35.51 5 37.07 5C38.63 5 39.36 4.27 40.54 3C41.72 1.73 43.17 0 46 0C48.83 0 50.3 1.64 51.47 3C52.64 4.36 53.39 5 54.94 5C56.49 5 57.24 4.26 58.41 2.94C59.58 1.62 61 0 63.88 0C66.76 0 68.17 1.64 69.34 3C70.51 4.36 71.26 5 72.81 5C74.36 5 75.11 4.26 76.28 2.94C77.45 1.62 78.91 0 81.75 0C84.59 0 86 1.64 87.21 3C88.42 4.36 89.13 5 90.68 5C90.857 4.98432 91.0352 5.00563 91.2035 5.06257C91.3717 5.11952 91.5263 5.21086 91.6573 5.33079C91.7883 5.45071 91.8929 5.59659 91.9645 5.75915C92.0361 5.9217 92.0731 6.09738 92.0731 6.275C92.0731 6.45262 92.0361 6.6283 91.9645 6.79085C91.8929 6.95341 91.7883 7.09929 91.6573 7.21921C91.5263 7.33914 91.3717 7.43048 91.2035 7.48743C91.0352 7.54437 90.857 7.56568 90.68 7.55V7.56Z" fill="white"/>
    </svg>