<svg xmlns="http://www.w3.org/2000/svg" viewBox="0 0 212.31 212.31"><g id="Layer_2" data-name="Layer 2"><g id="Ñëîé_1" data-name="Ñëîé 1"><path d="M168.24,212.31l-62.08-62.08L44.08,212.31,0,168.24l62.08-62.08L0,44.08,44.08,0l62.08,62.08L168.24,0l44.07,44.08-62.08,62.08,62.08,62.08ZM7.07,168.24l37,37,62.08-62.08,62.08,62.08,37-37-62.08-62.08,62.08-62.08-37-37L106.16,69.15,44.08,7.07l-37,37,62.08,62.08Z"/><rect x="194.03" y="31.82" width="5" height="24.51"/><rect x="194.03" y="155.98" width="5" height="24.78"/><rect x="179.88" y="17.68" width="5" height="52.79"/><rect x="179.88" y="141.84" width="5" height="53.07"/><rect x="165.74" y="3.54" width="5" height="81.08"/><rect x="165.74" y="128.17" width="5" height="80.62"/><rect x="151.6" y="17.68" width="5" height="81.08"/><rect x="151.6" y="113.56" width="5" height="81.08"/><rect x="137.46" y="31.82" width="5" height="148.68"/><rect x="123.31" y="45.96" width="5" height="120.86"/><rect x="109.17" y="60.1" width="5" height="92.1"/><rect x="95.03" y="57.45" width="5" height="97.87"/><rect x="80.89" y="42.85" width="5" height="126.62"/><rect x="66.75" y="28.11" width="5" height="155.5"/><rect x="52.6" y="116.77" width="5" height="80.98"/><rect x="52.6" y="13.97" width="5" height="81.67"/><rect x="38.46" y="130.81" width="5" height="74.85"/><rect x="38.46" y="6.65" width="5" height="74.85"/><rect x="24.32" y="144.7" width="5" height="46.3"/><rect x="24.32" y="20.79" width="5" height="46.56"/><rect x="10.18" y="34.93" width="5" height="18.75"/><rect x="10.18" y="158.49" width="5" height="18.38"/></g></g></svg>