<svg width="130" height="130" viewBox="0 0 130 130" fill="none" xmlns="http://www.w3.org/2000/svg">
<path d="M102.996 130L64.9694 91.9736L26.943 130L0 102.996L38.0264 64.9694L0 27.0042L27.0042 0L65.0306 38.0264L102.996 0L130 27.0042L91.9736 65.0306L130 103.057L102.996 130ZM4.34762 102.996L27.0042 125.652L65.0306 87.626L103.057 125.652L125.714 102.996L87.6872 64.9694L125.714 26.943L103.057 4.28639L65.0306 42.3128L27.0042 4.34762L4.34762 27.0042L42.374 65.0306L4.34762 102.996Z" fill="white"/>
<path d="M121.856 19.4724H118.794V34.4748H121.856V19.4724Z" fill="white"/>
<path d="M121.856 95.5252H118.794V110.711H121.856V95.5252Z" fill="white"/>
<path d="M113.222 10.8384H110.16V43.17H113.222V10.8384Z" fill="white"/>
<path d="M113.222 86.83H110.16V119.345H113.222V86.83Z" fill="white"/>
<path d="M104.527 2.14319H101.465V51.804H104.527V2.14319Z" fill="white"/>
<path d="M104.527 78.5021H101.465V127.857H104.527V78.5021Z" fill="white"/>
<path d="M95.8926 10.8384H92.8309V60.4993H95.8926V10.8384Z" fill="white"/>
<path d="M95.8926 69.562H92.8309V119.223H95.8926V69.562Z" fill="white"/>
<path d="M87.2586 19.4724H84.1969V110.528H87.2586V19.4724Z" fill="white"/>
<path d="M78.5634 28.1677H75.5016V102.2H78.5634V28.1677Z" fill="white"/>
<path d="M69.9293 36.8017H66.8676V93.1983H69.9293V36.8017Z" fill="white"/>
<path d="M61.2341 35.2096H58.1724V95.1578H61.2341V35.2096Z" fill="white"/>
<path d="M52.6001 26.2082H49.5384V103.731H52.6001V26.2082Z" fill="white"/>
<path d="M43.9048 17.2068H40.8431V112.426H43.9048V17.2068Z" fill="white"/>
<path d="M35.2708 71.5214H32.2091V121.121H35.2708V71.5214Z" fill="white"/>
<path d="M35.2708 8.57275H32.2091V58.601H35.2708V8.57275Z" fill="white"/>
<path d="M26.6368 80.0942H23.5751V125.959H26.6368V80.0942Z" fill="white"/>
<path d="M26.6368 4.04144H23.5751V49.8446H26.6368V4.04144Z" fill="white"/>
<path d="M17.9416 88.6057H14.8799V116.957H17.9416V88.6057Z" fill="white"/>
<path d="M17.9416 12.7367H14.8799V41.2718H17.9416V12.7367Z" fill="white"/>
<path d="M9.30755 21.3707H6.24585V32.8827H9.30755V21.3707Z" fill="white"/>
<path d="M9.30755 97.0561H6.24585V108.323H9.30755V97.0561Z" fill="white"/>
</svg>
