<svg width="157" height="157" viewBox="0 0 157 157" fill="none" xmlns="http://www.w3.org/2000/svg">
<path d="M78.5 107.507C62.4901 107.507 49.4929 94.5099 49.4929 78.5C49.4929 62.4902 62.4901 49.4929 78.5 49.4929C94.5099 49.4929 107.507 62.4902 107.507 78.5C107.507 94.5099 94.4668 107.507 78.5 107.507ZM78.5 51.6448C63.6952 51.6448 51.6447 63.6952 51.6447 78.5C51.6447 93.3049 63.6952 105.355 78.5 105.355C93.3048 105.355 105.355 93.3049 105.355 78.5C105.355 63.6952 93.3048 51.6448 78.5 51.6448Z" fill="white"/>
<path d="M78.5 90.3783C71.9583 90.3783 66.6217 85.0417 66.6217 78.5C66.6217 71.9583 71.9583 66.6217 78.5 66.6217C85.0417 66.6217 90.3783 71.9583 90.3783 78.5C90.3783 85.0417 85.0417 90.3783 78.5 90.3783ZM78.5 68.7736C73.1634 68.7736 68.7736 73.1203 68.7736 78.5C68.7736 83.8366 73.1203 88.2264 78.5 88.2264C83.8366 88.2264 88.2264 83.8796 88.2264 78.5C88.2264 73.1203 83.8366 68.7736 78.5 68.7736Z" fill="white"/>
<path d="M78.5 123.947C53.4523 123.947 33.0526 103.548 33.0526 78.5C33.0526 53.4523 53.4523 33.0526 78.5 33.0526C103.548 33.0526 123.947 53.4523 123.947 78.5C123.947 103.548 103.548 123.947 78.5 123.947ZM78.5 35.2045C54.6143 35.2045 35.2045 54.6143 35.2045 78.5C35.2045 102.386 54.6143 121.795 78.5 121.795C102.386 121.795 121.796 102.386 121.796 78.5C121.796 54.6143 102.343 35.2045 78.5 35.2045Z" fill="white"/>
<path d="M78.5 140.861C44.1132 140.861 16.139 112.887 16.139 78.5001C16.139 44.1133 44.1132 16.139 78.5 16.139C112.887 16.139 140.861 44.1133 140.861 78.5001C140.861 112.887 112.887 140.861 78.5 140.861ZM78.5 18.2909C45.3183 18.2909 18.2908 45.3183 18.2908 78.5001C18.2908 111.682 45.3183 138.709 78.5 138.709C111.682 138.709 138.709 111.682 138.709 78.5001C138.709 45.2753 111.682 18.2909 78.5 18.2909Z" fill="white"/>
<path d="M78.5 157C35.2045 157 0 121.752 0 78.5C0 35.2045 35.2045 0 78.5 0C121.796 0 157 35.2045 157 78.5C157 121.752 121.752 157 78.5 157ZM78.5 2.15186C36.4095 2.15186 2.15186 36.4095 2.15186 78.5C2.15186 120.59 36.4095 154.848 78.5 154.848C120.59 154.848 154.848 120.59 154.848 78.5C154.848 36.4095 120.59 2.15186 78.5 2.15186Z" fill="white"/>
</svg>
