<svg xmlns="http://www.w3.org/2000/svg" viewBox="0 0 92 30"><defs><style>.cls-1{fill:#fff;}</style></defs><g id="Layer_2" data-name="Layer 2"><g id="Ñëîé_1" data-name="Ñëîé 1"><path class="cls-1" d="M90.68,30c-2.83,0-4.29-1.64-5.46-2.95S83.3,25,81.75,25s-2.3.74-3.47,2.06S75.65,30,72.81,30s-4.29-1.64-5.46-2.95S65.43,25,63.88,25s-2.3.74-3.47,2.06S57.78,30,54.94,30s-4.29-1.64-5.46-2.95S47.56,25,46,25s-2.29.74-3.47,2.06S39.91,30,37.07,30s-4.3-1.64-5.47-2.95S29.69,25,28.13,25s-2.3.74-3.47,2.06S22,30,19.19,30s-4.29-1.64-5.46-2.95S11.81,25,10.26,25s-2.3.74-3.48,2.06S4.15,30,1.32,30a1.28,1.28,0,1,1,0-2.55c1.55,0,2.29-.75,3.47-2.06s2.63-2.95,5.47-2.95,4.29,1.63,5.46,2.95,1.92,2.06,3.47,2.06,2.3-.75,3.48-2.06,2.62-2.95,5.46-2.95,4.3,1.63,5.47,2.95,1.91,2.06,3.47,2.06,2.29-.75,3.47-2.06,2.63-2.95,5.46-2.95,4.3,1.63,5.47,2.95,1.92,2.06,3.47,2.06,2.3-.75,3.47-2.06,2.63-2.95,5.47-2.95,4.29,1.63,5.46,2.95,1.92,2.06,3.47,2.06,2.3-.75,3.47-2.06,2.63-2.95,5.47-2.95,4.29,1.63,5.46,2.95,1.92,2.06,3.47,2.06a1.28,1.28,0,1,1,0,2.55Z"/><path class="cls-1" d="M90.68,18.78c-2.83,0-4.29-1.63-5.46-3s-1.92-2.06-3.47-2.06-2.3.74-3.47,2.06-2.63,3-5.47,3-4.29-1.63-5.46-3-1.92-2.06-3.47-2.06-2.3.74-3.47,2.06-2.63,3-5.47,3-4.29-1.63-5.46-3S47.56,13.77,46,13.77s-2.29.74-3.47,2.06-2.62,3-5.46,3-4.3-1.63-5.47-3-1.91-2.06-3.47-2.06-2.3.74-3.47,2.06-2.63,3-5.47,3-4.29-1.63-5.46-3-1.92-2.06-3.47-2.06-2.3.74-3.48,2.06-2.63,3-5.46,3a1.28,1.28,0,1,1,0-2.55c1.55,0,2.29-.74,3.47-2.06s2.63-2.95,5.47-2.95,4.29,1.63,5.46,2.95,1.92,2.06,3.47,2.06,2.3-.74,3.48-2.06,2.62-2.95,5.46-2.95,4.3,1.63,5.47,2.95,1.91,2.06,3.47,2.06,2.29-.74,3.47-2.06,2.63-2.95,5.46-2.95,4.3,1.63,5.47,2.95,1.92,2.06,3.47,2.06,2.3-.74,3.47-2.06,2.63-2.95,5.47-2.95,4.29,1.63,5.46,2.95,1.92,2.06,3.47,2.06,2.3-.74,3.47-2.06,2.63-2.95,5.47-2.95,4.29,1.63,5.46,2.95,1.92,2.06,3.47,2.06a1.28,1.28,0,1,1,0,2.55Z"/><path class="cls-1" d="M90.68,7.56c-2.83,0-4.29-1.63-5.46-2.95S83.3,2.55,81.75,2.55s-2.3.75-3.47,2.06-2.63,2.95-5.47,2.95-4.29-1.63-5.46-2.95-1.92-2.06-3.47-2.06-2.3.75-3.47,2.06-2.63,2.95-5.47,2.95-4.29-1.63-5.46-2.95S47.56,2.55,46,2.55s-2.29.75-3.47,2.06-2.62,2.95-5.46,2.95-4.3-1.63-5.47-2.95-1.91-2.06-3.47-2.06-2.3.75-3.47,2.06S22,7.56,19.19,7.56,14.9,5.93,13.73,4.61s-1.92-2.06-3.47-2.06S8,3.3,6.78,4.61,4.15,7.56,1.32,7.56A1.28,1.28,0,1,1,1.32,5C2.87,5,3.61,4.27,4.79,3S7.42,0,10.26,0s4.29,1.64,5.46,3S17.64,5,19.19,5s2.3-.74,3.48-2.06S25.29,0,28.13,0s4.3,1.64,5.47,3S35.51,5,37.07,5,39.36,4.27,40.54,3,43.17,0,46,0s4.3,1.64,5.47,3S53.39,5,54.94,5s2.3-.74,3.47-2.06S61,0,63.88,0s4.29,1.64,5.46,3S71.26,5,72.81,5s2.3-.74,3.47-2.06S78.91,0,81.75,0,86,1.64,87.21,3,89.13,5,90.68,5a1.28,1.28,0,1,1,0,2.55Z"/></g></g></svg>