<svg width="584" height="275" viewBox="0 0 584 275" fill="none" xmlns="http://www.w3.org/2000/svg">
<g clipPath="url(#clip0_29_94)">
<path d="M318.7 5.1C318.7 7.9 316.4 10.2 313.6 10.2C310.8 10.2 308.5 7.9 308.5 5.1C308.5 2.3 310.8 0 313.6 0C316.4 0 318.7 2.3 318.7 5.1Z" fill="white"/>
<path d="M362.8 5.1C362.8 7.9 360.5 10.2 357.7 10.2C354.9 10.2 352.6 7.9 352.6 5.1C352.6 2.3 354.9 0 357.7 0C360.5 0 362.8 2.3 362.8 5.1Z" fill="white"/>
<path d="M406.9 5.1C406.9 7.9 404.6 10.2 401.8 10.2C399 10.2 396.7 7.9 396.7 5.1C396.7 2.3 399 0 401.8 0C404.6 0 406.9 2.3 406.9 5.1Z" fill="white"/>
<path d="M450.9 5.1C450.9 7.9 448.6 10.2 445.8 10.2C443 10.2 440.7 7.9 440.7 5.1C440.7 2.3 443 0 445.8 0C448.6 0 450.9 2.3 450.9 5.1Z" fill="white"/>
<path d="M495 5.1C495 7.9 492.7 10.2 489.9 10.2C487.1 10.2 484.8 7.9 484.8 5.1C484.8 2.3 487.1 0 489.9 0C492.7 0 495 2.3 495 5.1Z" fill="white"/>
<path d="M539.1 5.1C539.1 7.9 536.8 10.2 534 10.2C531.2 10.2 528.9 7.9 528.9 5.1C528.9 2.3 531.2 0 534 0C536.8 0 539.1 2.3 539.1 5.1Z" fill="white"/>
<path d="M583.1 5.1C583.1 7.9 580.8 10.2 578 10.2C575.2 10.2 572.9 7.9 572.9 5.1C572.9 2.3 575.2 0 578 0C580.8 0 583.1 2.3 583.1 5.1Z" fill="white"/>
<path d="M318.7 49.2C318.7 52 316.4 54.3 313.6 54.3C310.8 54.3 308.5 52 308.5 49.2C308.5 46.4 310.8 44.1 313.6 44.1C316.4 44.1 318.7 46.4 318.7 49.2Z" fill="white"/>
<path d="M362.8 49.2C362.8 52 360.5 54.3 357.7 54.3C354.9 54.3 352.6 52 352.6 49.2C352.6 46.4 354.9 44.1 357.7 44.1C360.5 44.1 362.8 46.4 362.8 49.2Z" fill="white"/>
<path d="M406.9 49.2C406.9 52 404.6 54.3 401.8 54.3C399 54.3 396.7 52 396.7 49.2C396.7 46.4 399 44.1 401.8 44.1C404.6 44.1 406.9 46.4 406.9 49.2Z" fill="white"/>
<path d="M450.9 49.2C450.9 52 448.6 54.3 445.8 54.3C443 54.3 440.7 52 440.7 49.2C440.7 46.4 443 44.1 445.8 44.1C448.6 44.1 450.9 46.4 450.9 49.2Z" fill="white"/>
<path d="M495 49.2C495 52 492.7 54.3 489.9 54.3C487.1 54.3 484.8 52 484.8 49.2C484.8 46.4 487.1 44.1 489.9 44.1C492.7 44.1 495 46.4 495 49.2Z" fill="white"/>
<path d="M539.1 49.2C539.1 52 536.8 54.3 534 54.3C531.2 54.3 528.9 52 528.9 49.2C528.9 46.4 531.2 44.1 534 44.1C536.8 44.1 539.1 46.4 539.1 49.2Z" fill="white"/>
<path d="M583.1 49.2C583.1 52 580.8 54.3 578 54.3C575.2 54.3 572.9 52 572.9 49.2C572.9 46.4 575.2 44.1 578 44.1C580.8 44.1 583.1 46.4 583.1 49.2Z" fill="white"/>
<path d="M318.7 93C318.7 95.8 316.4 98.1 313.6 98.1C310.8 98.1 308.5 95.8 308.5 93C308.5 90.2 310.8 87.9 313.6 87.9C316.4 87.8 318.7 90.1 318.7 93Z" fill="white"/>
<path d="M362.8 93C362.8 95.8 360.5 98.1 357.7 98.1C354.9 98.1 352.6 95.8 352.6 93C352.6 90.2 354.9 87.9 357.7 87.9C360.5 87.8 362.8 90.1 362.8 93Z" fill="white"/>
<path d="M406.9 93C406.9 95.8 404.6 98.1 401.8 98.1C399 98.1 396.7 95.8 396.7 93C396.7 90.2 399 87.9 401.8 87.9C404.6 87.8 406.9 90.1 406.9 93Z" fill="white"/>
<path d="M450.9 93C450.9 95.8 448.6 98.1 445.8 98.1C443 98.1 440.7 95.8 440.7 93C440.7 90.2 443 87.9 445.8 87.9C448.6 87.8 450.9 90.1 450.9 93Z" fill="white"/>
<path d="M495 93C495 95.8 492.7 98.1 489.9 98.1C487.1 98.1 484.8 95.8 484.8 93C484.8 90.2 487.1 87.9 489.9 87.9C492.7 87.8 495 90.1 495 93Z" fill="white"/>
<path d="M539.1 93C539.1 95.8 536.8 98.1 534 98.1C531.2 98.1 528.9 95.8 528.9 93C528.9 90.2 531.2 87.9 534 87.9C536.8 87.8 539.1 90.1 539.1 93Z" fill="white"/>
<path d="M583.1 93C583.1 95.8 580.8 98.1 578 98.1C575.2 98.1 572.9 95.8 572.9 93C572.9 90.2 575.2 87.9 578 87.9C580.8 87.8 583.1 90.1 583.1 93Z" fill="white"/>
<path d="M318.7 137.1C318.7 139.9 316.4 142.2 313.6 142.2C310.8 142.2 308.5 139.9 308.5 137.1C308.5 134.3 310.8 132 313.6 132C316.4 131.9 318.7 134.2 318.7 137.1Z" fill="white"/>
<path d="M362.8 137.1C362.8 139.9 360.5 142.2 357.7 142.2C354.9 142.2 352.6 139.9 352.6 137.1C352.6 134.3 354.9 132 357.7 132C360.5 131.9 362.8 134.2 362.8 137.1Z" fill="white"/>
<path d="M406.9 137.1C406.9 139.9 404.6 142.2 401.8 142.2C399 142.2 396.7 139.9 396.7 137.1C396.7 134.3 399 132 401.8 132C404.6 131.9 406.9 134.2 406.9 137.1Z" fill="white"/>
<path d="M450.9 137.1C450.9 139.9 448.6 142.2 445.8 142.2C443 142.2 440.7 139.9 440.7 137.1C440.7 134.3 443 132 445.8 132C448.6 131.9 450.9 134.2 450.9 137.1Z" fill="white"/>
<path d="M495 137.1C495 139.9 492.7 142.2 489.9 142.2C487.1 142.2 484.8 139.9 484.8 137.1C484.8 134.3 487.1 132 489.9 132C492.7 131.9 495 134.2 495 137.1Z" fill="white"/>
<path d="M539.1 137.1C539.1 139.9 536.8 142.2 534 142.2C531.2 142.2 528.9 139.9 528.9 137.1C528.9 134.3 531.2 132 534 132C536.8 131.9 539.1 134.2 539.1 137.1Z" fill="white"/>
<path d="M583.1 137.1C583.1 139.9 580.8 142.2 578 142.2C575.2 142.2 572.9 139.9 572.9 137.1C572.9 134.3 575.2 132 578 132C580.8 131.9 583.1 134.2 583.1 137.1Z" fill="white"/>
<path d="M318.7 181.1C318.7 183.9 316.4 186.2 313.6 186.2C310.8 186.2 308.5 183.9 308.5 181.1C308.5 178.3 310.8 176 313.6 176C316.4 176 318.7 178.3 318.7 181.1Z" fill="white"/>
<path d="M362.8 181.1C362.8 183.9 360.5 186.2 357.7 186.2C354.9 186.2 352.6 183.9 352.6 181.1C352.6 178.3 354.9 176 357.7 176C360.5 176 362.8 178.3 362.8 181.1Z" fill="white"/>
<path d="M406.9 181.1C406.9 183.9 404.6 186.2 401.8 186.2C399 186.2 396.7 183.9 396.7 181.1C396.7 178.3 399 176 401.8 176C404.6 176 406.9 178.3 406.9 181.1Z" fill="white"/>
<path d="M450.9 181.1C450.9 183.9 448.6 186.2 445.8 186.2C443 186.2 440.7 183.9 440.7 181.1C440.7 178.3 443 176 445.8 176C448.6 176 450.9 178.3 450.9 181.1Z" fill="white"/>
<path d="M495 181.1C495 183.9 492.7 186.2 489.9 186.2C487.1 186.2 484.8 183.9 484.8 181.1C484.8 178.3 487.1 176 489.9 176C492.7 176 495 178.3 495 181.1Z" fill="white"/>
<path d="M539.1 181.1C539.1 183.9 536.8 186.2 534 186.2C531.2 186.2 528.9 183.9 528.9 181.1C528.9 178.3 531.2 176 534 176C536.8 176 539.1 178.3 539.1 181.1Z" fill="white"/>
<path d="M583.1 181.1C583.1 183.9 580.8 186.2 578 186.2C575.2 186.2 572.9 183.9 572.9 181.1C572.9 178.3 575.2 176 578 176C580.8 176 583.1 178.3 583.1 181.1Z" fill="white"/>
<path d="M318.7 224.9C318.7 227.7 316.4 230 313.6 230C310.8 230 308.5 227.7 308.5 224.9C308.5 222.1 310.8 219.8 313.6 219.8C316.4 219.8 318.7 222.1 318.7 224.9Z" fill="white"/>
<path d="M362.8 224.9C362.8 227.7 360.5 230 357.7 230C354.9 230 352.6 227.7 352.6 224.9C352.6 222.1 354.9 219.8 357.7 219.8C360.5 219.8 362.8 222.1 362.8 224.9Z" fill="white"/>
<path d="M406.9 224.9C406.9 227.7 404.6 230 401.8 230C399 230 396.7 227.7 396.7 224.9C396.7 222.1 399 219.8 401.8 219.8C404.6 219.8 406.9 222.1 406.9 224.9Z" fill="white"/>
<path d="M450.9 224.9C450.9 227.7 448.6 230 445.8 230C443 230 440.7 227.7 440.7 224.9C440.7 222.1 443 219.8 445.8 219.8C448.6 219.8 450.9 222.1 450.9 224.9Z" fill="white"/>
<path d="M495 224.9C495 227.7 492.7 230 489.9 230C487.1 230 484.8 227.7 484.8 224.9C484.8 222.1 487.1 219.8 489.9 219.8C492.7 219.8 495 222.1 495 224.9Z" fill="white"/>
<path d="M539.1 224.9C539.1 227.7 536.8 230 534 230C531.2 230 528.9 227.7 528.9 224.9C528.9 222.1 531.2 219.8 534 219.8C536.8 219.8 539.1 222.1 539.1 224.9Z" fill="white"/>
<path d="M583.1 224.9C583.1 227.7 580.8 230 578 230C575.2 230 572.9 227.7 572.9 224.9C572.9 222.1 575.2 219.8 578 219.8C580.8 219.8 583.1 222.1 583.1 224.9Z" fill="white"/>
<path d="M318.7 269.2C318.7 272 316.4 274.3 313.6 274.3C310.8 274.3 308.5 272 308.5 269.2C308.5 266.4 310.8 264.1 313.6 264.1C316.4 264.1 318.7 266.4 318.7 269.2Z" fill="white"/>
<path d="M362.8 269.2C362.8 272 360.5 274.3 357.7 274.3C354.9 274.3 352.6 272 352.6 269.2C352.6 266.4 354.9 264.1 357.7 264.1C360.5 264.1 362.8 266.4 362.8 269.2Z" fill="white"/>
<path d="M406.9 269.2C406.9 272 404.6 274.3 401.8 274.3C399 274.3 396.7 272 396.7 269.2C396.7 266.4 399 264.1 401.8 264.1C404.6 264.1 406.9 266.4 406.9 269.2Z" fill="white"/>
<path d="M450.9 269.2C450.9 272 448.6 274.3 445.8 274.3C443 274.3 440.7 272 440.7 269.2C440.7 266.4 443 264.1 445.8 264.1C448.6 264.1 450.9 266.4 450.9 269.2Z" fill="white"/>
<path d="M495 269.2C495 272 492.7 274.3 489.9 274.3C487.1 274.3 484.8 272 484.8 269.2C484.8 266.4 487.1 264.1 489.9 264.1C492.7 264.1 495 266.4 495 269.2Z" fill="white"/>
<path d="M539.1 269.2C539.1 272 536.8 274.3 534 274.3C531.2 274.3 528.9 272 528.9 269.2C528.9 266.4 531.2 264.1 534 264.1C536.8 264.1 539.1 266.4 539.1 269.2Z" fill="white"/>
<path d="M583.1 269.2C583.1 272 580.8 274.3 578 274.3C575.2 274.3 572.9 272 572.9 269.2C572.9 266.4 575.2 264.1 578 264.1C580.8 264.1 583.1 266.4 583.1 269.2Z" fill="white"/>
<path d="M10.3 5.1C10.3 7.9 8 10.2 5.2 10.2C2.3 10.3 0 8 0 5.1C0 2.3 2.3 0 5.1 0C8 0 10.3 2.3 10.3 5.1Z" fill="white"/>
<path d="M54.4 5.1C54.4 7.9 52.1 10.2 49.3 10.2C46.5 10.2 44.2 7.9 44.2 5.1C44.2 2.3 46.5 0 49.3 0C52 0 54.4 2.3 54.4 5.1Z" fill="white"/>
<path d="M98.4 5.1C98.4 7.9 96.1 10.2 93.3 10.2C90.5 10.2 88.2 7.9 88.2 5.1C88.2 2.3 90.5 0 93.3 0C96.1 0 98.4 2.3 98.4 5.1Z" fill="white"/>
<path d="M142.5 5.1C142.5 7.9 140.2 10.2 137.4 10.2C134.6 10.2 132.3 7.9 132.3 5.1C132.3 2.3 134.6 0 137.4 0C140.2 0 142.5 2.3 142.5 5.1Z" fill="white"/>
<path d="M186.6 5.1C186.6 7.9 184.3 10.2 181.5 10.2C178.7 10.2 176.4 7.9 176.4 5.1C176.4 2.3 178.7 0 181.5 0C184.3 0 186.6 2.3 186.6 5.1Z" fill="white"/>
<path d="M230.6 5.1C230.6 7.9 228.3 10.2 225.5 10.2C222.7 10.2 220.4 7.9 220.4 5.1C220.4 2.3 222.7 0 225.5 0C228.3 0 230.6 2.3 230.6 5.1Z" fill="white"/>
<path d="M274.7 5.1C274.7 7.9 272.4 10.2 269.6 10.2C266.8 10.2 264.5 7.9 264.5 5.1C264.5 2.3 266.8 0 269.6 0C272.4 0 274.7 2.3 274.7 5.1Z" fill="white"/>
<path d="M10.3 49.2C10.3 52 8 54.3 5.2 54.3C2.3 54.3 0 52 0 49.2C0 46.4 2.3 44.1 5.1 44.1C8 44.1 10.3 46.4 10.3 49.2Z" fill="white"/>
<path d="M54.4 49.2C54.4 52 52.1 54.3 49.3 54.3C46.5 54.3 44.2 52 44.2 49.2C44.2 46.4 46.5 44.1 49.3 44.1C52 44.1 54.4 46.4 54.4 49.2Z" fill="white"/>
<path d="M98.4 49.2C98.4 52 96.1 54.3 93.3 54.3C90.5 54.3 88.2 52 88.2 49.2C88.2 46.4 90.5 44.1 93.3 44.1C96.1 44.1 98.4 46.4 98.4 49.2Z" fill="white"/>
<path d="M142.5 49.2C142.5 52 140.2 54.3 137.4 54.3C134.6 54.3 132.3 52 132.3 49.2C132.3 46.4 134.6 44.1 137.4 44.1C140.2 44.1 142.5 46.4 142.5 49.2Z" fill="white"/>
<path d="M186.6 49.2C186.6 52 184.3 54.3 181.5 54.3C178.7 54.3 176.4 52 176.4 49.2C176.4 46.4 178.7 44.1 181.5 44.1C184.3 44.1 186.6 46.4 186.6 49.2Z" fill="white"/>
<path d="M230.6 49.2C230.6 52 228.3 54.3 225.5 54.3C222.7 54.3 220.4 52 220.4 49.2C220.4 46.4 222.7 44.1 225.5 44.1C228.3 44.1 230.6 46.4 230.6 49.2Z" fill="white"/>
<path d="M274.7 49.2C274.7 52 272.4 54.3 269.6 54.3C266.8 54.3 264.5 52 264.5 49.2C264.5 46.4 266.8 44.1 269.6 44.1C272.4 44.1 274.7 46.4 274.7 49.2Z" fill="white"/>
<path d="M10.3 93C10.3 95.8 8 98.1 5.2 98.1C2.3 98.1 0 95.8 0 93C0 90.2 2.3 87.9 5.1 87.9C8 87.8 10.3 90.1 10.3 93Z" fill="white"/>
<path d="M54.4 93C54.4 95.8 52.1 98.1 49.3 98.1C46.5 98.1 44.2 95.8 44.2 93C44.2 90.2 46.5 87.9 49.3 87.9C52 87.8 54.4 90.1 54.4 93Z" fill="white"/>
<path d="M98.4 93C98.4 95.8 96.1 98.1 93.3 98.1C90.5 98.1 88.2 95.8 88.2 93C88.2 90.2 90.5 87.9 93.3 87.9C96.1 87.8 98.4 90.1 98.4 93Z" fill="white"/>
<path d="M142.5 93C142.5 95.8 140.2 98.1 137.4 98.1C134.6 98.1 132.3 95.8 132.3 93C132.3 90.2 134.6 87.9 137.4 87.9C140.2 87.8 142.5 90.1 142.5 93Z" fill="white"/>
<path d="M186.6 93C186.6 95.8 184.3 98.1 181.5 98.1C178.7 98.1 176.4 95.8 176.4 93C176.4 90.2 178.7 87.9 181.5 87.9C184.3 87.8 186.6 90.1 186.6 93Z" fill="white"/>
<path d="M230.6 93C230.6 95.8 228.3 98.1 225.5 98.1C222.7 98.1 220.4 95.8 220.4 93C220.4 90.2 222.7 87.9 225.5 87.9C228.3 87.8 230.6 90.1 230.6 93Z" fill="white"/>
<path d="M274.7 93C274.7 95.8 272.4 98.1 269.6 98.1C266.8 98.1 264.5 95.8 264.5 93C264.5 90.2 266.8 87.9 269.6 87.9C272.4 87.8 274.7 90.1 274.7 93Z" fill="white"/>
<path d="M10.3 137.1C10.3 139.9 8.00001 142.2 5.20001 142.2C2.40001 142.2 0.100006 139.9 0.100006 137.1C0.100006 134.3 2.40001 132 5.20001 132C8.00001 131.9 10.3 134.2 10.3 137.1Z" fill="white"/>
<path d="M54.4 137.1C54.4 139.9 52.1 142.2 49.3 142.2C46.5 142.2 44.2 139.9 44.2 137.1C44.2 134.3 46.5 132 49.3 132C52 131.9 54.4 134.2 54.4 137.1Z" fill="white"/>
<path d="M98.4 137.1C98.4 139.9 96.1 142.2 93.3 142.2C90.5 142.2 88.2 139.9 88.2 137.1C88.2 134.3 90.5 132 93.3 132C96.1 131.9 98.4 134.2 98.4 137.1Z" fill="white"/>
<path d="M142.5 137.1C142.5 139.9 140.2 142.2 137.4 142.2C134.6 142.2 132.3 139.9 132.3 137.1C132.3 134.3 134.6 132 137.4 132C140.2 131.9 142.5 134.2 142.5 137.1Z" fill="white"/>
<path d="M186.6 137.1C186.6 139.9 184.3 142.2 181.5 142.2C178.7 142.2 176.4 139.9 176.4 137.1C176.4 134.3 178.7 132 181.5 132C184.3 131.9 186.6 134.2 186.6 137.1Z" fill="white"/>
<path d="M230.6 137.1C230.6 139.9 228.3 142.2 225.5 142.2C222.7 142.2 220.4 139.9 220.4 137.1C220.4 134.3 222.7 132 225.5 132C228.3 131.9 230.6 134.2 230.6 137.1Z" fill="white"/>
<path d="M274.7 137.1C274.7 139.9 272.4 142.2 269.6 142.2C266.8 142.2 264.5 139.9 264.5 137.1C264.5 134.3 266.8 132 269.6 132C272.4 131.9 274.7 134.2 274.7 137.1Z" fill="white"/>
<path d="M10.3 181.1C10.3 183.9 8.00001 186.2 5.20001 186.2C2.40001 186.2 0.100006 183.9 0.100006 181.1C0.100006 178.3 2.40001 176 5.20001 176C8.00001 176 10.3 178.3 10.3 181.1Z" fill="white"/>
<path d="M54.4 181.1C54.4 183.9 52.1 186.2 49.3 186.2C46.5 186.2 44.2 183.9 44.2 181.1C44.2 178.3 46.5 176 49.3 176C52 176 54.4 178.3 54.4 181.1Z" fill="white"/>
<path d="M98.4 181.1C98.4 183.9 96.1 186.2 93.3 186.2C90.5 186.2 88.2 183.9 88.2 181.1C88.2 178.3 90.5 176 93.3 176C96.1 176 98.4 178.3 98.4 181.1Z" fill="white"/>
<path d="M142.5 181.1C142.5 183.9 140.2 186.2 137.4 186.2C134.6 186.2 132.3 183.9 132.3 181.1C132.3 178.3 134.6 176 137.4 176C140.2 176 142.5 178.3 142.5 181.1Z" fill="white"/>
<path d="M186.6 181.1C186.6 183.9 184.3 186.2 181.5 186.2C178.7 186.2 176.4 183.9 176.4 181.1C176.4 178.3 178.7 176 181.5 176C184.3 176 186.6 178.3 186.6 181.1Z" fill="white"/>
<path d="M230.6 181.1C230.6 183.9 228.3 186.2 225.5 186.2C222.7 186.2 220.4 183.9 220.4 181.1C220.4 178.3 222.7 176 225.5 176C228.3 176 230.6 178.3 230.6 181.1Z" fill="white"/>
<path d="M274.7 181.1C274.7 183.9 272.4 186.2 269.6 186.2C266.8 186.2 264.5 183.9 264.5 181.1C264.5 178.3 266.8 176 269.6 176C272.4 176 274.7 178.3 274.7 181.1Z" fill="white"/>
<path d="M10.3 224.9C10.3 227.7 8.00001 230 5.20001 230C2.40001 230 0.100006 227.7 0.100006 224.9C0.100006 222.1 2.40001 219.8 5.20001 219.8C8.00001 219.8 10.3 222.1 10.3 224.9Z" fill="white"/>
<path d="M54.4 224.9C54.4 227.7 52.1 230 49.3 230C46.5 230 44.2 227.7 44.2 224.9C44.2 222.1 46.5 219.8 49.3 219.8C52 219.8 54.4 222.1 54.4 224.9Z" fill="white"/>
<path d="M98.4 224.9C98.4 227.7 96.1 230 93.3 230C90.5 230 88.2 227.7 88.2 224.9C88.2 222.1 90.5 219.8 93.3 219.8C96.1 219.8 98.4 222.1 98.4 224.9Z" fill="white"/>
<path d="M142.5 224.9C142.5 227.7 140.2 230 137.4 230C134.6 230 132.3 227.7 132.3 224.9C132.3 222.1 134.6 219.8 137.4 219.8C140.2 219.8 142.5 222.1 142.5 224.9Z" fill="white"/>
<path d="M186.6 224.9C186.6 227.7 184.3 230 181.5 230C178.7 230 176.4 227.7 176.4 224.9C176.4 222.1 178.7 219.8 181.5 219.8C184.3 219.8 186.6 222.1 186.6 224.9Z" fill="white"/>
<path d="M230.6 224.9C230.6 227.7 228.3 230 225.5 230C222.7 230 220.4 227.7 220.4 224.9C220.4 222.1 222.7 219.8 225.5 219.8C228.3 219.8 230.6 222.1 230.6 224.9Z" fill="white"/>
<path d="M274.7 224.9C274.7 227.7 272.4 230 269.6 230C266.8 230 264.5 227.7 264.5 224.9C264.5 222.1 266.8 219.8 269.6 219.8C272.4 219.8 274.7 222.1 274.7 224.9Z" fill="white"/>
<path d="M10.3 269.2C10.3 272 8.00001 274.3 5.20001 274.3C2.40001 274.3 0.100006 272 0.100006 269.2C0.100006 266.4 2.40001 264.1 5.20001 264.1C8.00001 264.1 10.3 266.4 10.3 269.2Z" fill="white"/>
<path d="M54.4 269.2C54.4 272 52.1 274.3 49.3 274.3C46.5 274.3 44.2 272 44.2 269.2C44.2 266.4 46.5 264.1 49.3 264.1C52 264.1 54.4 266.4 54.4 269.2Z" fill="white"/>
<path d="M98.4 269.2C98.4 272 96.1 274.3 93.3 274.3C90.5 274.3 88.2 272 88.2 269.2C88.2 266.4 90.5 264.1 93.3 264.1C96.1 264.1 98.4 266.4 98.4 269.2Z" fill="white"/>
<path d="M142.5 269.2C142.5 272 140.2 274.3 137.4 274.3C134.6 274.3 132.3 272 132.3 269.2C132.3 266.4 134.6 264.1 137.4 264.1C140.2 264.1 142.5 266.4 142.5 269.2Z" fill="white"/>
<path d="M186.6 269.2C186.6 272 184.3 274.3 181.5 274.3C178.7 274.3 176.4 272 176.4 269.2C176.4 266.4 178.7 264.1 181.5 264.1C184.3 264.1 186.6 266.4 186.6 269.2Z" fill="white"/>
<path d="M230.6 269.2C230.6 272 228.3 274.3 225.5 274.3C222.7 274.3 220.4 272 220.4 269.2C220.4 266.4 222.7 264.1 225.5 264.1C228.3 264.1 230.6 266.4 230.6 269.2Z" fill="white"/>
<path d="M274.7 269.2C274.7 272 272.4 274.3 269.6 274.3C266.8 274.3 264.5 272 264.5 269.2C264.5 266.4 266.8 264.1 269.6 264.1C272.4 264.1 274.7 266.4 274.7 269.2Z" fill="white"/>
</g>
<defs>
<clipPath id="clip0_29_94">
<rect width="583.1" height="274.4" fill="white"/>
</clipPath>
</defs>
</svg>
