<svg xmlns="http://www.w3.org/2000/svg" viewBox="0 0 608.33 103.26"><defs><style>.cls-1{fill:#e42e35;}</style></defs><g id="Layer_2" data-name="Layer 2"><g id="Ñëîé_1" data-name="Ñëîé 1"><polygon class="cls-1" points="608.33 85.97 560.95 63.8 509.64 87.8 458.32 63.8 407.01 87.8 355.7 63.8 304.38 87.8 253.07 63.8 201.76 87.8 150.44 63.8 99.13 87.8 47.81 63.8 0 86.16 0 101.61 47.81 79.26 99.13 103.26 150.44 79.26 201.76 103.26 253.07 79.26 304.38 103.26 355.7 79.26 407.01 103.26 458.32 79.26 509.64 103.26 560.95 79.26 608.33 101.42 608.33 85.97"/><polygon class="cls-1" points="608.33 54.06 560.95 31.9 509.64 55.9 458.32 31.9 407.01 55.9 355.7 31.9 304.38 55.9 253.07 31.9 201.76 55.9 150.44 31.9 99.13 55.9 47.81 31.9 0 54.26 0 69.71 47.81 47.35 99.13 71.36 150.44 47.35 201.76 71.36 253.07 47.35 304.38 71.36 355.7 47.35 407.01 71.36 458.32 47.35 509.64 71.36 560.95 47.35 608.33 69.52 608.33 54.06"/><polygon class="cls-1" points="608.33 22.16 560.95 0 509.64 24 458.32 0 407.01 24 355.7 0 304.38 24 253.07 0 201.76 24 150.44 0 99.13 24 47.81 0 0 22.36 0 37.81 47.81 15.46 99.13 39.45 150.44 15.46 201.76 39.45 253.07 15.46 304.38 39.45 355.7 15.46 407.01 39.45 458.32 15.46 509.64 39.45 560.95 15.46 608.33 37.62 608.33 22.16"/></g></g></svg>